<svg xmlns="http://www.w3.org/2000/svg" width="601.057" height="608" viewBox="0 0 601.057 608">
  <g id="Group_5917" data-name="Group 5917" transform="translate(73.925 -1179)">
    <path id="Path_424" data-name="Path 424" d="M-235.082,177.924-138.665,0-32.991,177.924Z" transform="translate(559.243 1608.576)" fill="none" stroke="#54aaaa" stroke-width="1"/>
    <path id="Path_425" data-name="Path 425" d="M601.057-707.253H0v608H601.057Z" transform="translate(-73.925 1886.253)" fill="none"/>
    <path id="Path_426" data-name="Path 426" d="M-365.429-210.905l206.509.082L-51.283-29.6l-206.509-.082Z" transform="translate(326.455 1393.342)" fill="none" stroke="#54aaaa" stroke-width="1"/>
    <path id="Path_427" data-name="Path 427" d="M-6.619,182.47-114.984,0,92.228.082Z" transform="translate(309.781 1576.07)" fill="none" stroke="#54aaaa" stroke-width="1"/>
    <path id="Path_428" data-name="Path 428" d="M-6.618,182.47-114.983,0,92.229.082Z" transform="translate(202.536 1395.488)" fill="none" stroke="#54aaaa" stroke-width="1"/>
    <path id="Path_429" data-name="Path 429" d="M-416.315-235.881h237.464L-58.424-33.1H-283.951Z" transform="translate(343.315 1819.601)" fill="none" stroke="#54aaaa" stroke-width="1"/>
    <path id="Path_430" data-name="Path 430" d="M-262.437,379.718V-.087L-36.83,379.793Z" transform="translate(189.965 1180.909)" fill="none" stroke="#54aaaa" stroke-width="1"/>
    <path id="Path_431" data-name="Path 431" d="M-114.424,153.611V0l98.366,153.611Z" transform="translate(41.951 1632.889)" fill="none" stroke="#54aaaa" stroke-width="1"/>
    <path id="Path_432" data-name="Path 432" d="M601.057-707.253H0v608H601.057Z" transform="translate(-73.925 1886.253)" fill="none"/>
  </g>
</svg>
